<svg width="1920" height="420" viewBox="0 0 1920 420" fill="none" xmlns="http://www.w3.org/2000/svg">
<g clip-path="url(#clip0_54516_27281)">
<path d="M0 40C0 17.9086 17.9086 0 40 0H1880C1902.09 0 1920 17.9086 1920 40V420H0V40Z" fill="url(#paint0_linear_54516_27281)"/>
<path d="M1266.56 9.6497L1258.98 10.8657L1257.26 19.3016L1255.53 10.8657L1247.96 9.6497L1255.53 8.43368L1257.26 0L1258.98 8.43368L1266.56 9.6497Z" fill="white"/>
<path d="M922.067 34.5325L914.492 35.7485L912.767 44.1844L911.042 35.7485L903.471 34.5325L911.042 33.3165L912.767 24.8828L914.492 33.3165L922.067 34.5325Z" fill="white"/>
<path d="M432.197 110.48L423.974 111.803L422.1 120.962L420.227 111.803L412 110.48L420.227 109.159L422.1 100L423.974 109.159L432.197 110.48Z" fill="white"/>
<path d="M720.143 12.3749L714.853 13.2249L713.651 19.1154L712.445 13.2249L707.158 12.3749L712.445 11.5272L713.651 5.63672L714.853 11.5272L720.143 12.3749Z" fill="white"/>
<path d="M755.018 227.71L747.446 228.926L745.718 237.36L743.993 228.926L736.422 227.71L743.993 226.492L745.718 218.059L747.446 226.492L755.018 227.71Z" fill="white"/>
<path d="M720.127 307.405L714.853 308.252L713.65 314.13L712.447 308.252L707.17 307.405L712.447 306.557L713.65 300.682L714.853 306.557L720.127 307.405Z" fill="white"/>
<path d="M100.957 50.723L95.6795 51.5707L94.4769 57.4481L93.2773 51.5707L88 50.723L93.2773 49.8752L94.4769 44L95.6795 49.8752L100.957 50.723Z" fill="white"/>
<path d="M345.849 296.415L335.322 298.107L332.923 309.831L330.527 298.107L320 296.415L330.527 294.724L332.923 283L335.322 294.724L345.849 296.415Z" fill="white"/>
<path d="M71.5928 410.652L64.0215 411.868L62.2964 420.302L60.5713 411.868L53 410.652L60.5713 409.436L62.2964 401L64.0215 409.436L71.5928 410.652Z" fill="white"/>
<path d="M1887.74 375.612L1882.55 376.444L1881.37 382.221L1880.19 376.444L1875 375.612L1880.19 374.779L1881.37 369L1882.55 374.779L1887.74 375.612Z" fill="white"/>
<path d="M1672.59 273.652L1665.02 274.868L1663.3 283.302L1661.57 274.868L1654 273.652L1661.57 272.434L1663.3 264L1665.02 272.434L1672.59 273.652Z" fill="white"/>
<path d="M1012.79 375.88L1005.22 377.096L1003.5 385.53L1001.77 377.096L994.201 375.88L1001.77 374.664L1003.5 366.229L1005.22 374.664L1012.79 375.88Z" fill="white"/>
<path d="M1750.59 93.6497L1743.02 94.8657L1741.3 103.302L1739.57 94.8657L1732 93.6497L1739.57 92.4337L1741.3 84L1743.02 92.4337L1750.59 93.6497Z" fill="white"/>
<path d="M1558.58 142.792L1547.75 144.532L1545.29 156.585L1542.82 144.532L1532 142.792L1542.82 141.053L1545.29 129L1547.75 141.053L1558.58 142.792Z" fill="white"/>
<path d="M1126.73 149.571L1120.74 150.534L1119.38 157.205L1118.01 150.534L1112.03 149.571L1118.01 148.61L1119.38 141.939L1120.74 148.61L1126.73 149.571Z" fill="white"/>
<path d="M1320.44 259.65L1311.31 261.117L1309.22 271.298L1307.14 261.117L1298 259.65L1307.14 258.181L1309.22 248L1311.31 258.181L1320.44 259.65Z" fill="white"/>
<path opacity="0.3" d="M1517 -4.88638C1380.23 7.418 1168.51 36.52 976.553 104.889C660.284 217.534 574.811 256.726 502.661 246.415C431.481 236.241 472.545 169.258 368.498 180.4C295.129 188.26 146.315 232.501 -36 229.618C-21.3109 213.512 -9.43844 197.285 -4.45574 179.855C-1.72186 170.297 -0.481678 160.061 -0.128922 149.354C235.629 124.709 335.415 -7.99332 459.217 -25.9045C618.939 -49.0166 447.24 95.3927 664.081 22.7676C825.17 -31.1672 1013.87 -111.058 1174.35 -154C1218.66 -141.907 1255.47 -123.635 1283.78 -102.494C1342.61 -58.5744 1403.91 -59.0192 1471.81 -30.2873C1489.3 -22.8852 1504.62 -14.665 1517 -4.88638Z" fill="url(#paint1_linear_54516_27281)"/>
<path opacity="0.3" d="M2031.4 -83.8201C2021.73 -30.8735 2012.27 16.4563 2023.26 81.2169C1567.81 142.133 1174.65 574.647 1044.64 598.764C868.801 631.389 807.465 514.171 692.097 535.147C627.663 546.869 466.384 636.285 336.52 713C221.616 638.87 177.429 539.553 169.625 461.322C168.274 447.76 167.785 434.663 168.085 422.029C380.725 497.718 560.197 396.207 725.484 355.637C902.586 312.127 982.586 367.286 1133.49 330.774C1385.12 269.907 1814.7 -33.9478 2033 -93C2032.49 -89.9685 2031.95 -86.9187 2031.39 -83.8201H2031.4Z" fill="url(#paint2_linear_54516_27281)"/>
</g>
<defs>
<linearGradient id="paint0_linear_54516_27281" x1="960" y1="0" x2="960" y2="420" gradientUnits="userSpaceOnUse">
<stop stop-color="#3F001A"/>
<stop offset="1"/>
</linearGradient>
<linearGradient id="paint1_linear_54516_27281" x1="778.997" y1="-160.558" x2="749.334" y2="445.616" gradientUnits="userSpaceOnUse">
<stop stop-color="white"/>
<stop offset="1"/>
</linearGradient>
<linearGradient id="paint2_linear_54516_27281" x1="983.539" y1="-317.04" x2="1357.58" y2="1290.91" gradientUnits="userSpaceOnUse">
<stop stop-color="white"/>
<stop offset="1"/>
</linearGradient>
<clipPath id="clip0_54516_27281">
<path d="M0 40C0 17.9086 17.9086 0 40 0H1880C1902.09 0 1920 17.9086 1920 40V420H0V40Z" fill="white"/>
</clipPath>
</defs>
</svg>
